<?xml version="1.0" encoding="utf-8"?>
<!-- Generator: Adobe Illustrator 23.1.1, SVG Export Plug-In . SVG Version: 6.00 Build 0)  -->
<svg version="1.1" xmlns="http://www.w3.org/2000/svg" xmlns:xlink="http://www.w3.org/1999/xlink" x="0px" y="0px"
	 viewBox="0 0 119.9 119.6" style="enable-background:new 0 0 119.9 119.6;" xml:space="preserve">
<style type="text/css">
	.st0{display:none;}
	.st1{display:inline;}
	.st2{display:inline;clip-path:url(#SVGID_2_);fill:#44B29C;}
	.st3{display:inline;clip-path:url(#SVGID_2_);fill:#C7E9EF;}
	.st4{clip-path:url(#SVGID_2_);fill:#F0CA4E;}
	.st5{clip-path:url(#SVGID_2_);fill:#F79568;}
	.st6{fill:#BBE5EE;}
	.st7{fill:#FFFFFF;}
	.st8{display:inline;clip-path:url(#SVGID_4_);fill:#44B29C;}
	.st9{display:inline;clip-path:url(#SVGID_4_);fill:#C7E9EF;}
	.st10{clip-path:url(#SVGID_4_);fill:#F0CA4E;}
	.st11{clip-path:url(#SVGID_4_);fill:#F79568;}
	.st12{display:none;clip-path:url(#SVGID_6_);}
	.st13{clip-path:url(#SVGID_6_);}
	.st14{fill:none;stroke:#FFFFFF;stroke-miterlimit:10;}
	.st15{opacity:0.36;fill:none;stroke:#000000;stroke-width:0.25;stroke-miterlimit:10;}
	.st16{opacity:0.36;}
	.st17{fill:#B73426;}
	.st18{fill:#004352;}
	.st19{fill:#006B84;}
	.st20{display:none;clip-path:url(#SVGID_12_);}
	.st21{clip-path:url(#SVGID_12_);}
	.st22{display:none;clip-path:url(#SVGID_18_);}
</style>
<g id="Pattern_1">
</g>
<g id="Pattern_1_copy">
</g>
<g id="white_dots">
</g>
<g id="blue_border">
</g>
<g id="Border">
</g>
<g id="Text">
</g>
<g id="Layer_9">
</g>
<g id="Color_wheel">
	<path class="st6" d="M87.3,100c0.1-0.2,0.1-0.4,0.1-0.6c0.6-3.9,0.7-7.9,0.2-11.8c-1.2-9.7-6.4-16.1-15.5-19.4
		c-0.4-0.1-0.7-0.2-1.1-0.4c0.4,0.4,0.9,0.6,1.4,0.8c6.1,2.7,10.2,7,12,13.5c1.1,4.1,1.3,8.3,0.9,12.5c-0.1,1-0.3,2-0.4,3.1
		c-4.1-0.3-7.9-1.1-11.6-2.5c-3.7-1.4-7-3.5-9.6-6.5C66.2,94.2,77.9,99.8,87.3,100z"/>
	<path class="st6" d="M24.4,52.6c1.5-0.8,2.9-1.6,4.4-2.3c1.4-0.7,2.9-1.3,4.4-1.8c1.5-0.5,3.1-0.9,4.7-1.2c1.6-0.3,3.2-0.4,4.8-0.3
		c1.6,0,3.1,0.4,4.5,0.5c-7.3-3.5-18.8-0.3-26,4.7c2.4,4.8,5.5,9.1,9.6,12.5c3.8,3.2,8.1,5.2,13.1,5.3c3.4,0.1,6.7-0.5,9.9-1.6
		c-0.2,0-0.4,0-0.6,0c-2.1,0.3-4.2,0.8-6.3,0.9c-4.3,0.2-8.3-1.2-11.8-3.7C30.3,62.3,27,57.8,24.4,52.6z"/>
	<path class="st6" d="M99.9,53.5c-1.5,3.7-3.5,7.1-6,10.2c-2.5,3.1-5.6,5.6-9.3,7.2C94.2,68,99,60.5,102.9,52
		c-0.2-0.1-0.3-0.3-0.5-0.3c-2.9-1.1-5.8-2.4-8.8-3.3c-4.6-1.3-9.2-1.6-13.9-0.3c-5.4,1.5-9.3,5.1-12.6,9.4c0,0,0,0.1,0,0.3
		c0.2-0.3,0.4-0.5,0.6-0.8c3.2-3.7,6.9-6.5,11.8-7.5c4.1-0.8,8.2-0.3,12.2,0.7C94.6,51,97.3,52.1,99.9,53.5z"/>
	<path class="st6" d="M61.9,22.3c-4.3,4.4-7.8,9.1-9.7,14.9c-1.6,4.6-1.5,9.3,0.2,13.9c0.9,2.4,2.1,4.6,3.6,6.6
		c-0.3-0.7-0.7-1.5-1.1-2.2c-2.3-4.3-3.2-8.9-2.1-13.8c0.8-3.6,2.3-6.8,4.5-9.8c1.6-2.2,3.4-4.3,5.1-6.5c6.2,5.7,11.2,11.7,12,20.3
		C74.5,35.7,68.9,28.7,61.9,22.3z"/>
	<path class="st6" d="M36.8,100.2c-1.8-9-2.3-17.8,3.3-25.7c-3.9,7.3-3.5,14.9-1.8,22.8c2.3-0.6,4.5-1.1,6.7-1.7
		c3.6-1.1,6.9-2.7,9.8-5.1c4.5-3.6,6.7-8.3,7.3-13.9c0.2-1.6,0.2-3.2,0.3-4.6c0.5,5.9-0.7,12.9-4.4,17.6c-2.9,3.7-6.7,6.2-11,7.8
		c-2.8,1-5.7,1.7-8.5,2.5c-0.3,0.1-0.6,0.1-0.8,0.3L36.8,100.2z"/>
	<path class="st6" d="M87.3,100c-9.5-0.2-21.1-5.8-23.5-11.3c2.6,3,5.9,5.1,9.6,6.5c3.7,1.4,7.5,2.2,11.6,2.5
		c0.1-1.1,0.3-2.1,0.4-3.1c0.4-4.2,0.2-8.4-0.9-12.5c-1.8-6.5-5.9-10.9-12-13.5c-0.5-0.2-1-0.4-1.4-0.8c0.4,0.1,0.7,0.2,1.1,0.4
		c9.2,3.3,14.3,9.8,15.5,19.4c0.5,4,0.4,7.9-0.2,11.8C87.5,99.6,87.4,99.8,87.3,100z"/>
	<path class="st6" d="M24.4,52.6c2.7,5.2,6,9.7,10.6,13.1c3.5,2.6,7.4,3.9,11.8,3.7c2.1-0.1,4.2-0.6,6.3-0.9c0.2,0,0.4-0.1,0.6,0
		c-3.2,1.1-6.5,1.7-9.9,1.6c-5-0.1-9.3-2.1-13.1-5.3c-4.1-3.5-7.1-7.8-9.6-12.5c7.3-5,18.7-8.2,26-4.7c-1.4-0.2-3-0.5-4.5-0.5
		c-1.6,0-3.2,0.1-4.8,0.3c-1.6,0.3-3.2,0.7-4.7,1.2c-1.5,0.5-3,1.1-4.4,1.8C27.3,51,25.9,51.8,24.4,52.6z"/>
	<path class="st6" d="M99.9,53.5c-2.6-1.4-5.3-2.5-8.1-3.2c-4-1.1-8-1.6-12.2-0.7c-4.9,1-8.6,3.8-11.8,7.5c-0.2,0.2-0.4,0.5-0.6,0.8
		c0-0.2,0-0.3,0-0.3c3.3-4.4,7.2-7.9,12.6-9.4c4.6-1.3,9.3-1,13.9,0.3c3,0.9,5.9,2.2,8.8,3.3c0.1,0.1,0.3,0.2,0.5,0.3
		c-3.9,8.5-8.7,16-18.3,18.9c3.7-1.6,6.7-4.1,9.3-7.2C96.4,60.7,98.4,57.2,99.9,53.5z"/>
	<path class="st6" d="M61.9,22.3c7,6.4,12.6,13.4,12.5,23.5c-0.8-8.5-5.8-14.6-12-20.3c-1.8,2.2-3.6,4.3-5.1,6.5
		c-2.1,3-3.7,6.2-4.5,9.8c-1.1,4.9-0.2,9.4,2.1,13.8c0.4,0.7,0.8,1.4,1.1,2.2c-1.5-2-2.7-4.2-3.6-6.6c-1.7-4.6-1.8-9.2-0.2-13.9
		C54.1,31.4,57.6,26.7,61.9,22.3z"/>
</g>
<g id="QrCode">
</g>
<g id="Layer_10">
</g>
</svg>
