<svg width="241" height="79" viewBox="0 0 241 79" fill="none" xmlns="http://www.w3.org/2000/svg">
<path d="M109.007 35.7527C109.007 35.7527 109.007 35.9125 109.007 35.7527C108.527 36.8714 107.888 37.8304 107.248 38.6295C106.609 39.5885 106.13 40.5474 105.331 41.3465C104.052 43.1046 102.614 44.8627 101.015 46.4609C100.216 47.2601 99.2572 47.8994 98.2983 48.5387C97.8188 48.8583 97.1795 49.0181 96.7 49.3378C96.0607 49.4976 95.4214 49.4976 94.7821 49.4976C94.1428 49.3378 93.5035 49.178 92.8642 48.6985C92.3848 48.3788 91.9053 47.8994 91.5856 47.4199C91.266 46.9404 90.7865 46.3011 90.6267 45.8216C90.4669 45.1823 90.307 44.7029 90.1472 44.0636C89.6677 41.6662 89.6677 39.2688 90.6267 37.0313C91.1062 35.9125 91.5856 34.7937 92.5446 33.8348C92.7044 33.6749 93.0241 33.3553 93.3437 33.1955L93.8232 32.8758L93.983 32.716C94.1428 32.716 94.1428 32.716 94.3027 32.716C95.1018 32.3963 95.9009 32.3963 96.7 32.716C97.0197 32.8758 97.3393 33.0356 97.659 33.3553C97.9786 33.6749 98.1385 33.9946 98.2983 34.3142C98.4581 34.6339 98.6179 34.9535 98.7778 35.2732C98.7778 35.5928 98.9376 35.9125 98.9376 36.2321V36.7116V37.1911C98.9376 37.5107 98.7778 37.8304 98.7778 38.15C98.6179 38.4697 98.4581 38.7893 98.4581 39.109C98.2983 39.4286 98.1385 39.5885 97.9786 39.9081C97.3393 40.8671 96.3804 41.826 95.2616 42.3055C94.3027 42.6251 93.3437 42.785 92.3848 42.6251C92.3848 42.9448 92.3848 43.4243 92.5446 43.7439C92.5446 44.2234 92.7044 44.7029 92.8642 45.1823C93.0241 45.6618 93.1839 46.1413 93.5035 46.4609C93.6634 46.6208 93.8232 46.7806 93.983 47.1002C94.1428 47.2601 94.3027 47.4199 94.4625 47.5797C94.7821 47.8994 95.2616 48.0592 95.5813 48.219C96.3804 48.3788 97.4992 48.219 98.2983 47.7395C99.2572 47.2601 100.056 46.6208 100.855 45.9815C102.454 44.543 103.892 42.9448 105.331 41.1867C106.609 39.4286 107.728 37.6706 108.687 35.5928C108.847 35.433 109.007 35.2732 109.326 35.433C109.007 35.433 109.007 35.5928 109.007 35.7527ZM91.9053 41.6662C92.7044 41.6662 93.5035 41.5064 94.3027 41.0269C95.1018 40.5474 95.7411 39.7483 96.2206 38.9492C96.3804 38.7893 96.3804 38.4697 96.5402 38.3099C96.5402 38.15 96.7 37.8304 96.7 37.6706C96.7 37.5107 96.8599 37.1911 96.7 37.0313V36.7116V36.392C96.7 36.2321 96.5402 35.9125 96.5402 35.7527C96.5402 35.5928 96.3804 35.433 96.2206 35.2732C96.0607 34.9535 95.7411 34.6339 95.4214 34.6339C95.1018 34.6339 94.942 34.4741 94.6223 34.6339C94.6223 34.6339 94.6223 34.6339 94.4625 34.6339H94.3027C94.3027 34.6339 94.1428 34.6339 94.1428 34.7937L93.6634 35.2732C93.0241 35.9125 92.5446 36.8714 92.2249 37.6706C92.0651 38.9492 91.9053 40.3876 91.9053 41.6662Z" fill="#048196"/>
<path d="M123.391 36.0723C119.395 37.8303 115.879 40.5473 113.002 43.9037C113.162 44.2233 113.322 44.543 113.481 44.8626C114.121 46.1412 114.6 47.4198 114.92 48.6984C115.399 49.977 115.719 51.4154 115.719 52.8539C115.719 54.2923 115.08 55.8905 113.961 56.8495C113.322 57.329 112.682 57.6486 111.723 57.8084C110.924 57.8084 110.125 57.4888 109.486 57.1691C108.207 56.2102 107.568 54.7718 107.568 53.3333C107.568 51.8949 108.047 50.4565 108.527 49.3377C109.166 48.2189 109.806 46.9403 110.605 45.8216C110.924 45.5019 111.084 45.1823 111.404 44.8626C110.924 44.0635 110.445 43.1045 109.965 42.3054C109.326 41.0268 108.847 39.7482 108.367 38.4696C107.888 37.191 107.408 35.7526 107.568 34.1544C107.568 33.8347 107.568 33.3552 107.728 33.0356C107.728 32.7159 107.888 32.2365 108.207 31.757C108.527 30.9579 109.166 30.3186 109.806 29.6793C110.445 29.1998 111.404 28.7203 112.363 28.5605C112.842 28.5605 113.481 28.5605 113.961 28.5605C114.44 28.7203 115.08 28.8801 115.399 29.1998L115.559 29.3596C116.358 29.9989 116.518 30.9579 115.879 31.757C115.24 32.5561 114.281 32.7159 113.481 32.0766L113.322 31.9168C113.162 31.757 113.002 31.5972 112.682 31.5972C112.363 31.5972 111.883 31.757 111.564 31.9168C111.244 32.0766 110.764 32.3963 110.605 32.8758C110.445 33.1954 110.285 33.6749 110.125 34.1544C109.965 35.2731 110.125 36.3919 110.605 37.6705C110.924 38.9491 111.404 40.2277 111.883 41.3465C112.203 41.9858 112.363 42.6251 112.682 43.2644C115.559 39.908 119.075 37.3509 123.071 35.433C123.231 35.2731 123.55 35.433 123.55 35.5928C123.71 35.7526 123.71 35.9124 123.391 36.0723ZM111.883 45.5019C111.723 45.6617 111.564 45.9814 111.404 46.1412C110.605 47.26 109.965 48.3788 109.326 49.4975C108.847 50.6163 108.367 51.8949 108.527 53.1735C108.527 54.2923 109.166 55.5709 110.125 56.2102C110.605 56.5298 111.084 56.6897 111.723 56.6897C112.203 56.6897 112.682 56.37 113.162 56.0504C113.641 55.7307 113.961 55.0914 114.121 54.6119C114.281 54.1325 114.44 53.4932 114.44 52.8539C114.44 51.5753 113.961 50.4565 113.481 49.1779C113.162 47.8993 112.682 46.7805 111.883 45.5019C112.043 45.5019 112.043 45.5019 111.883 45.5019Z" fill="#048196"/>
<path d="M137.615 35.7526C136.496 38.6295 135.218 41.5063 133.779 44.0635C132.98 45.3421 132.181 46.7805 131.062 47.8993C130.423 48.3788 129.784 49.0181 128.825 49.1779C127.866 49.3377 126.907 49.0181 126.268 48.3788C125.628 47.7395 125.149 47.1002 124.829 46.3011C124.51 45.5019 124.19 44.8626 124.03 44.0635C123.71 42.6251 123.391 41.0268 123.231 39.4286C123.071 37.8303 122.911 36.3919 122.751 34.7937C122.751 33.1954 122.592 31.757 122.751 30.1587C122.911 29.3596 123.551 28.8801 124.35 29.04C125.149 29.04 125.628 29.8391 125.628 30.4784C125.628 31.9168 125.309 33.5151 125.149 34.9535C125.149 36.3919 124.989 37.9902 124.989 39.4286C124.989 40.867 124.989 42.4653 125.309 43.9037C125.468 44.7028 125.628 45.3421 125.788 45.9814C126.108 46.6207 126.427 47.26 126.907 47.7395C127.386 48.219 128.026 48.3788 128.505 48.3788C129.144 48.3788 129.784 47.8993 130.263 47.4198C131.382 46.4609 132.181 45.1823 132.98 43.9037C134.578 41.3465 135.857 38.4696 136.976 35.5928C136.976 35.433 137.136 35.433 137.296 35.433C137.615 35.5928 137.775 35.7526 137.615 35.7526ZM126.268 24.2452C126.587 25.0443 126.268 25.8435 125.468 26.3229C124.669 26.8024 123.87 26.3229 123.391 25.5238C123.071 24.7247 123.391 23.9256 124.19 23.4461C124.989 23.1264 125.788 23.4461 126.268 24.2452Z" fill="#048196"/>
<path d="M163.507 36.3919C160.31 37.9902 157.593 40.2277 155.036 42.6251C154.397 43.2644 153.758 43.9037 153.118 44.543C153.118 44.7028 153.118 45.0225 153.118 45.3421C153.118 49.0181 152.958 52.5342 152.639 56.2102C152.319 59.7264 151.84 63.4023 150.881 66.9185C150.721 67.8774 150.401 68.6765 149.922 69.6355C149.602 70.4346 148.963 71.3936 148.323 72.0329C148.004 72.3525 147.524 72.832 146.885 72.9918C146.246 73.1516 145.606 73.1516 144.967 72.9918C143.848 72.5123 143.209 71.7132 142.57 70.9141C142.25 70.4346 142.09 69.9551 141.931 69.6355C141.931 69.4757 141.771 69.156 141.771 68.9962C141.771 68.8364 141.611 68.5167 141.611 68.3569C141.451 67.3979 141.291 66.439 141.291 65.48C141.291 63.5621 141.611 61.8041 142.09 59.8862C143.209 56.37 144.967 53.0137 147.045 49.977C148.324 48.0591 149.922 46.3011 151.52 44.543C151.52 43.1046 151.36 41.6661 151.2 40.2277C151.041 39.4286 151.041 38.4696 150.721 37.6705C150.721 37.5107 150.721 37.3509 150.561 37.191C148.803 38.15 147.205 39.1089 145.606 40.0679C144.488 40.7072 143.209 41.1867 142.09 41.6661C141.771 41.6661 141.451 41.826 141.131 41.826C140.812 41.826 140.492 41.826 140.172 41.9858C139.533 41.9858 138.734 41.9858 138.095 41.6661C137.775 41.5063 137.455 41.3465 137.136 41.0268C136.816 40.7072 136.656 40.3875 136.656 39.9081C136.496 39.1089 136.656 38.4696 136.816 37.6705C137.136 36.3919 137.935 35.1133 138.574 34.1544C139.373 33.0356 140.332 32.0767 141.451 31.1177C142.09 30.7981 143.529 30.3186 144.488 29.9989C144.967 29.9989 146.725 29.5195 149.282 29.9989C151.999 30.4784 153.758 33.5151 152.958 34.1544C150.241 35.7526 149.602 34.6338 150.082 33.1954C151.2 30.4784 143.209 32.8758 142.73 33.0356C141.771 33.3552 140.812 34.1544 140.013 34.9535C139.213 35.7526 138.574 36.8714 138.095 37.8303C137.935 38.3098 137.775 38.9491 137.935 39.4286C137.935 39.9081 138.255 40.2277 138.734 40.5474C139.213 40.7072 139.853 40.7072 140.332 40.7072C140.652 40.7072 140.972 40.7072 141.291 40.7072C141.611 40.7072 141.771 40.5474 142.09 40.5474C143.209 40.2277 144.328 39.4286 145.287 38.7893C147.205 37.3509 148.963 35.433 150.241 33.1954L151.84 32.716C152.479 32.5561 153.118 32.8758 153.278 33.5151C153.278 33.6749 153.278 33.8347 153.278 33.8347C153.278 34.9535 153.278 35.9124 153.278 36.8714C153.278 37.8303 153.438 38.7893 153.438 39.5884C153.598 40.5474 153.598 41.5063 153.598 42.4653C153.917 42.1456 154.237 41.826 154.716 41.5063C157.434 39.1089 160.31 36.8714 163.667 35.1133C163.986 34.9535 164.306 35.1133 164.466 35.433C163.827 35.7526 163.827 36.2321 163.507 36.3919ZM151.36 46.3011C150.241 47.5797 148.963 49.0181 148.004 50.6163C146.086 53.4932 144.328 56.6897 143.369 60.046C142.889 61.6442 142.57 63.4023 142.73 65.1604C142.73 65.9595 142.889 66.7586 143.049 67.7176C143.049 67.8774 143.209 68.0372 143.209 68.3569C143.209 68.5167 143.369 68.6765 143.369 68.9962C143.529 69.3158 143.689 69.6355 143.848 70.115C144.328 70.7543 144.807 71.3936 145.447 71.5534C145.766 71.5534 145.926 71.5534 146.246 71.5534C146.565 71.5534 146.725 71.3936 147.045 71.0739C147.524 70.5944 148.004 69.7953 148.323 68.9962C148.643 68.1971 148.963 67.3979 149.282 66.5988C149.762 65.0006 150.082 63.2425 150.401 61.4844C150.721 59.7264 150.881 57.9683 151.041 56.2102C151.2 52.6941 151.36 49.4976 151.36 46.3011Z" fill="#048196"/>
<path d="M176.932 39.2688C176.453 37.6705 175.813 34.9535 175.653 34.3142C175.494 33.6749 175.014 33.0356 174.375 32.3963C174.055 32.2365 173.576 31.9168 173.256 31.9168C173.096 31.9168 172.297 31.9168 171.978 32.2365C171.498 32.5561 171.338 32.8758 171.178 33.1954C171.019 33.5151 170.859 33.8347 170.699 34.1544C170.539 34.7937 170.219 35.433 170.06 36.0723C169.42 38.6295 169.101 41.1866 168.621 43.7438C168.461 45.0224 168.142 46.301 167.662 47.4198C167.502 47.7395 167.502 47.8993 167.343 48.0591C167.023 47.8993 166.863 47.7395 166.543 47.26C166.064 46.301 165.744 45.1823 165.425 43.9037C165.265 42.6251 165.105 41.3465 165.105 40.0679C165.105 37.5107 165.105 34.9535 165.425 32.3963C165.425 32.3963 165.425 32.3963 165.425 32.2365C165.425 31.4373 164.785 30.798 163.986 30.798C163.187 30.798 162.548 31.4373 162.548 32.2365C162.548 34.9535 162.548 37.5107 162.868 40.2277C163.027 41.5063 163.187 42.9447 163.507 44.2233C163.667 44.8626 163.826 45.5019 164.146 46.301C164.306 46.9403 164.626 47.5796 165.105 48.2189C165.265 48.5386 165.585 48.8582 165.904 49.1779C166.224 49.4975 166.703 49.6574 167.183 49.8172H167.343C167.502 49.8172 167.502 49.8172 167.662 49.8172C167.822 49.8172 168.142 49.6574 168.302 49.6574C168.621 49.4975 168.781 49.1779 168.781 49.0181C168.941 48.6984 169.101 48.2189 169.261 47.8993C169.74 46.6207 169.9 45.1823 170.06 43.9037C170.379 41.3465 170.699 38.7893 171.338 36.2321C171.498 35.5928 171.658 34.9535 171.818 34.474C171.818 34.1544 171.978 33.8347 172.137 33.6749C172.297 33.5151 172.297 33.1954 172.777 33.0356C172.936 33.0356 172.936 33.0356 173.096 33.0356C173.256 33.0356 173.416 33.0356 173.736 33.1954C174.055 33.5151 174.375 33.6749 174.695 34.6338C175.014 35.5928 175.334 37.9901 175.973 39.7482C176.612 41.5063 178.211 44.543 178.85 45.0224C179.17 45.1823 179.969 44.7028 179.649 44.3831C178.53 42.4652 177.571 41.3465 176.932 39.2688Z" fill="#048196"/>
<path d="M91.2659 38.6294C91.2659 38.4696 91.1061 38.4696 90.9463 38.4696C85.6721 40.5473 80.3978 42.625 75.2834 44.8626C76.0826 43.2643 76.8817 41.5062 77.521 39.7482C78.1603 37.6704 78.7996 35.5927 79.2791 33.515C80.0782 29.3596 80.3978 25.0443 79.9184 20.8888C79.2791 16.5736 77.8406 12.4181 74.9638 8.74215C73.5254 6.98408 71.6075 5.226 69.5297 3.9474C67.2922 2.66881 64.8948 1.70986 62.3376 1.23038C57.2232 0.111609 51.7892 0.591083 46.9944 1.86968C42.1997 3.14828 37.5648 5.38583 34.0486 8.58233C32.4504 10.1806 31.0119 12.0985 30.5325 14.336C30.2128 15.4548 30.2128 16.5736 30.8521 17.6923C31.1718 18.1718 31.8111 18.8111 32.4504 18.9709C33.2495 19.1308 33.8888 19.1308 34.6879 18.9709C34.8477 18.9709 35.0076 18.6513 35.0076 18.4915C35.0076 18.3316 34.6879 18.1718 34.3683 18.1718C33.8888 18.3316 33.2495 18.3316 32.77 18.1718C32.2905 18.012 31.9709 17.6923 31.8111 17.3727C31.4914 16.5736 31.4914 15.6146 31.8111 14.6557C32.2905 12.7378 33.729 10.9797 35.3272 9.54128C37.2451 7.7832 39.6425 6.34478 42.3595 5.226V29.0399C42.9988 29.3596 43.7979 29.6792 44.4372 30.1587L44.5971 4.42688C45.556 4.10723 46.6748 3.78758 47.6337 3.46793C52.2687 2.34916 57.2232 2.02951 61.6983 3.14828C63.9359 3.62776 66.0136 4.5867 67.9315 5.70548C69.6896 6.98408 71.2878 8.4225 72.5664 10.0207C75.1236 13.3771 76.562 17.2129 77.0415 21.2085C77.521 25.2041 77.2013 29.3596 76.4022 33.1954C76.0826 35.2731 75.4433 37.191 74.9638 39.1089C74.3245 41.0268 73.5254 42.9447 72.5664 44.8626C72.2468 45.342 72.0869 45.9813 71.7673 46.4608C69.3699 47.5796 66.9725 48.6984 64.5752 49.977C60.2599 52.0547 56.1045 54.2922 51.949 56.6896C49.3918 58.2879 46.8346 59.8861 44.2774 61.6442V51.8949C43.7979 52.2145 43.1586 52.5342 42.5193 52.8538V53.6529V62.9228C41.7202 63.5621 41.0809 64.0415 40.2818 64.6808C38.5237 66.1193 36.9255 67.8773 35.6469 69.6354C34.3683 71.3935 33.4093 73.4712 33.4093 75.7088C33.4093 76.0284 33.4093 76.1882 33.5691 76.5079V76.9874C33.5691 77.1472 33.729 77.307 33.729 77.4668C33.8888 77.7865 34.2084 78.1061 34.6879 78.266C35.0076 78.4258 35.487 78.5856 35.8067 78.5856C36.6058 78.5856 37.2451 78.4258 37.8844 78.4258C38.5237 78.266 39.163 78.1061 39.8023 77.7865C40.7613 77.4668 41.7202 76.9874 42.5193 76.5079V77.6267C42.5193 77.9463 42.839 78.266 43.3185 78.266C43.7979 78.266 44.1176 77.9463 44.1176 77.6267V75.7088C44.9167 75.3891 45.556 74.9096 46.3551 74.4302C50.3508 72.0328 54.1866 69.1559 57.7027 66.1193C61.2188 63.0826 64.4153 59.8861 67.2922 56.5298C70.169 53.1735 72.8861 49.4975 74.804 45.6617C75.7629 45.1822 76.7219 44.8626 77.6808 44.3831C82.1559 42.4652 86.4712 40.5473 91.1061 38.7892C91.2659 38.949 91.2659 38.7892 91.2659 38.6294ZM39.163 76.9874C38.6835 77.1472 38.0442 77.4668 37.5648 77.4668C37.0853 77.6267 36.446 77.7865 35.9665 77.6267C35.6469 77.6267 35.487 77.6267 35.3272 77.4668C35.1674 77.4668 35.0076 77.307 35.0076 77.1472C35.0076 76.9874 35.0076 76.9874 34.8477 76.8275V76.5079C34.8477 76.1882 34.8477 76.0284 34.8477 75.8686C34.6879 73.9507 35.6469 72.0328 36.7656 70.2747C38.0442 68.5166 39.4827 66.9184 41.2407 65.48C41.7202 65.1603 42.1997 64.6808 42.5193 64.3612V75.3891C41.4006 76.0284 40.2818 76.5079 39.163 76.9874ZM65.3743 55.7307C62.6573 59.087 59.4608 62.2835 56.2643 65.3201C52.9079 68.3568 49.232 71.2337 45.3962 73.631C44.9167 73.9507 44.5971 74.1105 44.1176 74.4302V62.9228C46.6748 61.0049 49.5516 59.087 52.2687 57.3289C56.2643 54.9315 60.4197 52.694 64.735 50.4564C66.8127 49.3377 69.0503 48.3787 71.128 47.2599C69.5297 50.4564 67.6118 53.1735 65.3743 55.7307Z" fill="#048196"/>
<path d="M183.805 48.0591C184.124 48.3788 184.284 48.6984 184.284 49.1779C184.284 49.6574 184.124 49.977 183.805 50.2967C183.485 50.6163 183.165 50.7761 182.686 50.7761C182.206 50.7761 181.887 50.6163 181.567 50.2967C181.247 49.977 181.088 49.6574 181.088 49.1779C181.088 48.6984 181.247 48.3788 181.567 48.0591C181.887 47.7395 182.206 47.5797 182.686 47.5797C183.165 47.5797 183.485 47.7395 183.805 48.0591Z" fill="#B73426"/>
<path d="M204.347 49.9417H202.908V46.5854C202.589 46.905 202.269 47.3845 201.95 47.7041C200.191 49.622 198.114 50.4212 195.557 50.581C192.999 50.581 190.922 49.7819 189.164 47.864C187.406 46.1059 186.447 43.8683 186.447 41.3111C186.447 38.7539 187.246 36.5164 189.004 34.5985C190.762 32.6806 192.84 31.8815 195.397 31.7217C197.954 31.7217 200.032 32.6806 201.79 34.4387C202.109 34.7583 202.429 35.2378 202.749 35.5574L202.589 22.6116H204.027L204.347 49.9417ZM202.908 42.5897V39.5531C202.589 38.1146 201.95 36.6762 200.831 35.5574C199.392 34.119 197.634 33.3199 195.557 33.3199C193.479 33.3199 191.721 34.119 190.282 35.5574C188.844 37.1557 188.045 38.9138 188.205 40.9915C188.364 43.0692 189.004 44.9871 190.442 46.4255C191.881 47.864 193.639 48.6631 195.716 48.6631C197.794 48.6631 199.552 47.864 200.991 46.4255C201.95 45.4666 202.589 44.188 202.908 42.5897Z" fill="#BBE5EE"/>
<path d="M211.539 46.7452C212.978 48.0238 214.576 48.6631 216.494 48.6631C218.572 48.6631 220.33 47.864 221.768 46.4256C221.928 46.2657 222.088 46.1059 222.248 45.7863L223.846 46.4256C223.526 46.905 223.206 47.2247 222.887 47.5443C221.129 49.4622 219.051 50.2614 216.494 50.4212C213.937 50.4212 211.859 49.6221 210.101 47.7042C208.343 45.7863 207.384 43.7085 207.384 41.1513C207.384 38.5941 208.183 36.3566 209.941 34.4387C211.699 32.5208 213.777 31.7217 216.334 31.7217C218.412 31.7217 220.33 32.361 221.928 33.6396C222.248 33.7994 222.407 34.1191 222.727 34.4387C222.887 34.5985 222.887 34.5985 223.047 34.7583L221.928 35.8771L211.539 46.7452ZM220.969 34.7583C219.69 33.7994 218.252 33.3199 216.494 33.3199C214.416 33.3199 212.658 34.119 211.22 35.5575C209.781 36.9959 208.982 38.9138 209.142 40.9915C209.142 42.7496 209.621 44.3478 210.74 45.6264L220.969 34.7583Z" fill="#BBE5EE"/>
<path d="M232.956 46.905L239.029 32.8405H240.787L232.956 50.2614L224.964 33.1601H226.722L232.956 46.905Z" fill="#BBE5EE"/>
<path d="M5.68467 41.4709C4.40607 40.8316 3.60695 40.1923 3.12748 39.7128C2.32835 38.9137 2.0087 37.9548 2.0087 36.836C2.0087 35.7172 2.32835 34.7583 3.12748 33.9591C3.9266 33.16 4.72572 32.8404 5.8445 32.6805C6.96327 32.6805 7.7624 33.0002 8.56152 33.7993C9.20082 34.4386 9.52047 35.3976 9.68029 36.1967V36.3565L8.08204 36.9958C7.92222 36.1967 7.76239 35.5574 7.28292 35.0779C6.80344 34.5984 6.32397 34.4386 5.68467 34.4386C5.04537 34.4386 4.40607 34.7583 3.9266 35.2377C3.44712 35.7172 3.2873 36.3565 3.2873 36.9958C3.2873 37.6351 3.60695 38.2744 4.08642 38.7539C4.40607 39.0735 4.88555 39.3932 5.8445 40.0325C7.28292 40.8316 8.24187 41.4709 8.88117 42.1102C9.84012 43.0692 10.3196 44.1879 10.3196 45.6264C10.3196 47.0648 9.84012 48.1835 8.88117 49.1425C7.92222 50.1014 6.80345 50.5809 5.52485 50.5809C4.24625 50.5809 3.12747 50.1014 2.16853 49.1425C1.20958 48.1835 0.730103 47.0648 0.730103 45.946L2.16853 45.4665C2.16853 46.4255 2.48818 47.2246 3.12748 48.0237C3.76677 48.8229 4.5659 48.9827 5.52485 48.9827C6.4838 48.9827 7.28292 48.663 7.92222 48.0237C8.56152 47.3844 8.88117 46.5853 8.88117 45.6264C8.88117 44.6674 8.56152 43.8683 7.92222 43.229C7.44275 42.7495 6.64362 42.27 5.68467 41.4709Z" fill="#BBE5EE"/>
<path d="M13.3562 22.7714H14.7946L14.9544 34.119C16.233 32.8404 17.6715 32.2011 19.4295 32.2011C21.3474 32.2011 22.9457 32.8404 24.0645 33.9592C25.3431 35.2378 25.8225 36.6762 25.9824 38.5941L26.1422 49.7818H24.7038L24.5439 38.7539C24.5439 37.3155 24.0645 36.1967 22.9457 35.0779C21.9867 34.2788 20.868 33.7993 19.4295 33.7993C17.9911 33.7993 16.8723 34.2788 15.9134 35.2378C15.4339 35.7172 15.1143 36.1967 14.9544 36.6762L15.1143 49.9416H13.6758L13.3562 22.7714Z" fill="#BBE5EE"/>
<path d="M33.1745 46.7452C34.6129 48.0238 36.2112 48.6631 38.1291 48.6631C40.2068 48.6631 41.9649 47.864 43.4033 46.4255C43.5631 46.2657 43.7229 46.1059 43.8828 45.7862L45.481 46.4255C45.1614 46.905 44.8417 47.2247 44.522 47.5443C42.764 49.4622 40.6863 50.2613 38.1291 50.4212C35.5719 50.4212 33.4941 49.622 31.7361 47.7041C29.978 45.7862 29.019 43.7085 29.019 41.1513C29.019 38.5941 29.8182 36.3566 31.5762 34.4387C33.3343 32.5208 35.412 31.7217 37.9692 31.5618C40.047 31.5618 41.9649 32.2011 43.5631 33.4797C43.8828 33.6395 44.0426 33.9592 44.3622 34.2788C44.5221 34.4387 44.5221 34.4387 44.6819 34.5985L43.5631 35.7173L33.1745 46.7452ZM42.6042 34.7583C41.3256 33.7994 39.8871 33.3199 38.1291 33.3199C36.0513 33.3199 34.2933 34.119 32.8548 35.5574C31.4164 37.1557 30.6173 38.9138 30.7771 40.9915C30.7771 42.7496 31.2566 44.3478 32.3754 45.6264L42.6042 34.7583Z" fill="#BBE5EE"/>
</svg>
