<?xml version="1.0" encoding="utf-8"?>
<!-- Generator: Adobe Illustrator 23.1.1, SVG Export Plug-In . SVG Version: 6.00 Build 0)  -->
<svg version="1.1" id="Layer_1" xmlns="http://www.w3.org/2000/svg" xmlns:xlink="http://www.w3.org/1999/xlink" x="0px" y="0px"
	 viewBox="0 0 922 778" style="enable-background:new 0 0 922 778;" xml:space="preserve">
<style type="text/css">
	.st0{fill:#BBE5EE;}
	.st1{fill:#006A83;}
	.st2{opacity:0.9;fill:#B63326;}
	.st3{fill:#004352;}
	.st4{fill:#B63326;}
	.st5{fill:#FAB08D;}
	.st6{fill:#082941;}
	.st7{fill:#E6F4FC;}
	.st8{fill:#E48C72;}
	.st9{fill:#51A0B8;}
</style>
<g id="_x34_lqQbZ.tif">
	<g>
		<path class="st0" d="M892.5,498.8C875,619,847.1,669.5,846,675c-0.3,1.4-78.4-30.7-78.4-30.1c-17.9,0-35.8-0.1-53.7-0.1
			c0.9-0.3,1.8-0.8,2.7-1c14.2-3.7,21.6-14.9,20.5-29.3c-1.2-16.3-6.1-31.3-13.7-45.5c-10.1-18.9-20.6-37.6-30.9-56.4
			c-2.1-3.8-3.9-7.7-5.8-11.5c0.3-0.1-25.8-27-38.8-62c-7.3-19.7-10.8-40.5-17-64c-16.8-64-11.5-132.3-11.7-136.1
			c-0.6-10.3-150.7-93.6-159.8-79.2c-3.9,6.2-8.4,12-12.6,18c-4,5.8-9.3,9.6-16.1,11c-10.7,2.3-24,89.8-22.9,93.2
			c2.4,7.4-3.2,140.9-3.9,142c-10.2,18.1-44.7,62.8-54.8,80.9c-11.1,20-22,40.2-33,60.3c-0.4-1.3-0.8-2.5-1.1-3.8
			c-7.3-31.8-14.6-63.5-21.9-95.3c-1.9-8.1-4.7-10.4-13.1-10.9c-10-0.5-20-0.8-29.9-1.4c-27.2-1.5-54.5-3.2-81.7-4.7
			c-15.3-0.9-30.6-1.5-45.9-2.3c-8-0.4-15.9-1.1-23.9-1.5c-10.1-0.5-20.3-1.1-30.4-1.3c-2,0-4.4,0.8-5.8,2.1c-2.8,2.6-5,5.8-7.4,8.7
			c-5.9,4.2-6,9.8-4.7,16.3c10.1,51.2,19.9,102.4,29.9,153.6c1.3,6.8,3.4,13.5,5.1,20.2c-7.4,0-14.8,0-22.2,0
			c-1.9-2.7-3.6-5.5-5.7-8c-5-5.9-7.6-13.1-10.7-19.9c-4.1-9-8-18.1-11.2-27.5c-2.7-8-4.5-16.4-6.4-24.8c-1.7-7.6-3.1-15.2-4.5-22.8
			c-0.8-4.4-1.4-8.8-1.5-13.3c-0.2-10.5-0.3-21,0-31.5c0.3-8.6,0.8-17.2,2.1-25.7c1.4-9.1,3.5-18.1,5.8-27.1
			c3.3-12.5,7.4-24.8,14.3-35.8c4.5-7.2,10.1-13.8,15.2-20.7c6.2-8.4,14.5-14.6,22.8-20.5c9.4-6.6,18.9-13.5,29.8-17.9
			c5-2,9.4-5.3,14.2-7.9c4.8-2.6,9.6-5.1,14.4-7.6c13.5-6.8,26.6-14.4,39.1-23.1c11-7.7,18.1-17.9,24.7-29c5.9-10,10.3-20.8,12.8-32
			c2.9-13,5-26.2,6.6-39.4c1.6-12.6,1.7-25.4,3.3-38c1.2-10.3,3.9-20.4,5.3-30.7c1.7-13,7.5-24.5,13-36c4.5-9.3,10.5-18.1,16.8-26.4
			C269.3,71.5,280,51,314,36c85-35,239-10,361,79S910,378.5,892.5,498.8z"/>
		<path class="st1" d="M848,671c-9.7,2.3-59.6,14-69.3,16.3c-16.7,4.1-33.3,8.5-50,12.5c-15.6,3.8-31.2,7.1-46.8,10.8
			c-20.4,4.8-40.8,9.7-61.2,14.7c-5.1,1.2-10.2,2.8-15.3,4c-4.5,1-9,2.2-13.6,2.5c-4.1,0.3-8.2-0.6-12.4-0.8
			c-7.8-0.4-15.6-0.6-23.4-1.1c-12.5-0.9-25.1-2-37.6-2.9c-10.9-0.8-21.8-1.4-32.7-2c-11.2-0.7-22.5-1.4-33.7-2
			c-12.2-0.7-24.5-1.3-36.7-2c-10.6-0.6-21.2-1.3-31.7-2c-11.6-0.7-23.2-1.3-34.7-2c-10.7-0.6-21.5-1.4-32.2-2
			c-12.6-0.7-25.2-1.3-37.7-2c-10.4-0.6-20.8-1.3-31.2-2c-11.6-0.7-23.2-1.3-34.7-2c-10.7-0.6-21.5-1.4-32.2-2
			c-14.9-0.8-29.8-1.4-44.7-2.1c-2.6-0.1-5.2-0.7-7.9-0.8c-2.8-0.1-5.5,0-8.3,0c-0.4,0-0.8-0.1-1.2-0.4c-4.3-3.2-8.8-6.2-12.7-9.8
			c-15.2-13.9-28.9-29.2-41-45.9c0,0,0,0,0,0c-0.9-1.3,0.1-3,1.6-3l18.5,0c0.2,0,0.5,0,0.7,0.1c3.4,1.2,6.8,3.1,10.3,3.5
			c13.2,1.4,26.5,2.3,39.8,3.4c17.9,1.4,35.8,2.8,53.8,4.3c23.6,1.9,47.1,3.9,70.7,5.9c14.3,1.2,28.5,2.7,42.8,3.6
			c6.1,0.4,12.3,2.5,18.3-0.1c0.3-0.1,0.5-0.2,0.8-0.2c1,0.1,2,0.2,2.9,0c6.8-1.1,13.6-2.4,20.5-3.4c12.4-2,24.7-3.9,37.1-5.7
			c7.5-1.1,14.9-2,22.4-3c1.4-0.2,2.5,1.2,2.1,2.5c-0.3,0.9-0.5,1.8-0.5,2.7c0,2.4,0.3,4.9,1.3,7c0.3,0.7,3.1,0.3,4.8,0.4
			c1,0,2-0.1,3-0.1c5.6,0,11.1,0.2,16.7,0c1.4,0,3-0.6,4.2-1.3c4.7-2.7,9.3-5.7,14-8.3c4.7-2.5,9.8-3.3,15-1.9
			c5.9,1.5,11.6,4,17.5,5.3c6.2,1.4,12.2,1.3,18-2.8c2.6-1.9,5.3-4.8,9.3-4c0.3,0.1,0.6,0.2,0.8,0.4c3.5,3.1,7.8,4.5,12.4,4.6
			c7.3,0.2,14.7,0.3,22-0.2c22.7-1.7,45.4-3.8,68.1-5.5c15.7-1.2,31.5-2,47.3-3.1c17.7-1.3,35.4-2.8,53.1-4.2c0.1,0,0.1,0,0.2,0
			c17.4,0,102.6,0.2,143,0.2C857,645,857,645,848,671z"/>
		<path class="st0" d="M118.9,704.1c3,0,6-0.1,9,0c2.6,0.1,5.2,0.7,7.9,0.8c14.9,0.7,29.8,1.3,44.7,2.1c10.8,0.6,21.5,1.3,32.2,2
			c11.6,0.7,23.2,1.3,34.7,2c10.4,0.6,20.8,1.4,31.2,2c12.6,0.7,25.2,1.3,37.7,2c10.7,0.6,21.5,1.3,32.2,2c11.6,0.7,23.2,1.3,34.7,2
			c10.6,0.6,21.2,1.4,31.7,2c12.2,0.7,24.5,1.3,36.7,2c11.2,0.6,22.5,1.3,33.7,2c10.9,0.7,21.8,1.2,32.7,2c12.5,0.9,25.1,2,37.6,2.9
			c7.8,0.5,15.6,0.7,23.4,1.1c4.1,0.2,8.3,1.1,12.4,0.8c4.6-0.3,9.1-1.4,13.6-2.5c5.1-1.2,10.2-2.8,15.3-4
			c20.4-4.9,40.8-9.9,61.2-14.7c15.6-3.7,31.2-7,46.8-10.8c16.7-4,33.3-8.5,50-12.5c9.7-2.4,19.6-4.1,29.3-6.4
			c13.4-3.2,26.7-6.6,40.1-9.9c-7,19-5,28-21,34c-23.8,6.6-40.2,12.4-64,19c-16.5,4.5-32.9,9.2-49.4,13.7
			c-19.7,5.4-39.3,10.8-59,16.2c-14.4,4-28.9,7.6-43.1,12.2c-14,4.5-28,4.4-42.2,2.3c-6.4-0.9-12.9-0.9-19.4-1.4
			c-15.2-1.2-30.4-2.6-45.6-3.9c-9.9-0.8-19.9-1.3-29.8-2.2c-9.9-0.8-19.8-1.9-29.7-2.8c-5.6-0.5-11.3-0.7-16.9-1.2
			c-15.7-1.3-31.4-2.7-47.1-3.9c-10.6-0.8-21.2-1.3-31.8-2.2c-14-1.2-28-2.6-42.1-3.8c-9.7-0.8-19.5-1.3-29.3-2.2
			c-9.7-0.8-19.4-1.9-29.2-2.8c-5.5-0.5-10.9-0.7-16.4-1.1c-16-1.3-32-2.6-48.1-3.9c-4.6-0.4-9.3-0.7-13.9-1.1
			c-1.5-0.1-3.1-0.3-4.3-1c-10.3-6-20.6-12-30.8-18.2c-4.5-2.8-8.7-6-13-9.2C121.1,706.6,120.1,705.3,118.9,704.1z"/>
		<path class="st2" d="M713.9,644.8c-17.7,1.4-35.4,2.9-53.2,4.2c-15.7,1.2-31.5,1.9-47.3,3.1c-22.7,1.7-45.4,3.9-68.1,5.5
			c-7.3,0.5-14.7,0.4-22,0.2c-4.7-0.1-9.1-1.6-12.8-4.9c1.7-0.6,3.3-1.6,5-1.7c4.1-0.2,5.4-2.8,6-6.1c1.1-5.6-1-10.4-3.9-14.9
			c-2.7-4.2-6.7-6.2-11.8-5.5c-0.9-0.6-1.8-1.2-3.5-2.2c2.2-1.4,3.8-3.1,5.6-3.5c8.2-1.6,16.5-2.8,24.8-4.3
			c10.9-1.9,21.7-3.8,32.6-5.8c3.5-0.6,7.1-1.4,10.6-2c9.4-1.7,18.8-3.4,28.2-5.1c1-0.1,2,0,3-0.2c12.6-2.1,25.2-4.3,37.8-6.4
			c3.5-0.6,7-1.1,10.1-1.6c-13.5-19.6-26.8-38.8-40-58.1c-1-1.5-2-3-3.1-4.5c-2.1,4.3-4,8.1-5.8,12c-1.8,4-2.7,8.5-5.1,12.1
			c-9.7,14.4-24.4,21.8-40.4,26.5c-7.1,2.1-14.5,3.1-21.8,4.4c-10.1,1.7-20.1,3.7-30.2,4.7c-12.8,1.2-25.8,1.4-38.6,2.2
			c-7.6,0.5-15.1,1.1-22.7,2c-10.9,1.4-20.6,5.5-28,14.1c-0.5,0.5-1.2,0.9-1.9,1.4c-0.3-1.4-0.6-2.5-1.1-4.4
			c-0.3,5.6-0.6,10.2-0.8,14.9c-0.3-9.9-0.5-19.8-0.9-29.8c-0.4-8.2-1.9-16.1-6.6-23.1c-2.9-4.4-5.6-8.9-8.6-13.2
			c-5.1-7.5-8.6-15.7-9.4-24.8c-1-11.7,1.5-23.1,4.9-34.2c3.4-11.1,7.2-22.1,11.2-33c4.5-12.2,7.9-24.9,12.8-36.9
			c2.3-5.8,6.4-10.9,9.3-16.4c1.4-2.7,3.8-4.9,5.7-7.3c4.2-2.7,5.6-6.9,9.9-9.2c8.4-4.4,19.5-7.3,28-11.5c-1.1,1.6-2.9,3.2-3.1,4.9
			c-0.6,5.1-1.7,10.1-1.1,15.6c1.5,12,13.1,25.7,24.9,27.9c11.8,2.2,23.7,3,35.4,0c14.3-3.7,20.5-10.3,26.8-23.9
			c3.4-7.3,8.4-16.8,8.2-24.7c8.2,3.4,16.4,6.9,24.6,10.3c4.4,1.8,32.6,16.4,38.7,22.9c7.4,7.8,15.1,15.5,21.6,24
			c8,10.6,14.9,21.9,21.9,33.1c4.4,7,8.3,14.4,12.4,21.6c1,1.7,1.9,3.4,2.9,5.1c0.5,0.9,1,1.8,1.5,2.7c1.9,3.8,3.7,7.7,5.8,11.5
			c10.3,18.8,20.8,37.5,30.9,56.4c7.6,14.2,12.5,29.2,13.7,45.5c1.1,14.4-6.3,25.6-20.5,29.3C715.7,644,714.8,644.5,713.9,644.8z"/>
		<path class="st1" d="M648.1,438.6c-6.2-8.3-13.7-15.6-20.8-23.2c-6.3-6.6-38-23.2-47.1-27c-4.7-1.9-8.2-3.4-8.2-3.4
			c0.1-1.9-9.3-54.2-13.6-61.9c-1.5-2.7-2.9-4.6-1.2-7.5c9.3-4.8,15.9-12,18.3-22.4c2-8.6,1.7-17.1-3.1-24.9
			c-2.8-4.5-8.3-6.6-13.3-4.8c-5.2,1.8-8.8,5.4-11.3,10.3c-0.7,1.4-1.5,2.8-2.3,4.2c-0.5-0.1-0.5-0.1-1.1-0.1
			c-0.1-0.6-0.3-1.2-0.4-1.8c-0.3-0.7-0.6-1.4-0.9-2.1l0,0c-0.9-1.7-1.4-4-2.7-5c-4.5-3.2-9.2-6.6-14.2-8.9
			c-15.8-7-31.9-13.2-47.6-20.4c-9.9-4.6-19.3-10.5-27-18.5c-2.7-2.8-5.1-6.1-7.6-9.2c-0.6-1-1.2-2.8-1.7-2.8
			c-7.1,0.8-13.6,66.2-13.4,68.1c0.7,5.8,3.3,19,4.3,19.7l0.1,0.2l-0.2,0.2c1,4.5,3.3,10.8,3,11.2c0.3,1.1,0.7,2.2,1,3.4l0-0.1
			c0.8,8,1.5,74.5,0.9,81.1c-0.2,2.3,4,3.8,1.9,5c-10,6-33.1,18.9-40,25c2-63,8.8-121,7.9-141c-0.9-20-8.9-68,22.9-93.2
			c11.2-4.8,12.1-5.3,16.1-11c4.1-6,8.7-11.9,12.6-18c41.6-41.7,145.1-6.9,159.8,79.2"/>
		<path class="st3" d="M321.6,665.4c-6.2,2.8-12.5,0.7-18.7,0.3c-14.3-0.9-28.5-2.4-42.8-3.6c-23.5-2-47.1-4-70.7-5.9
			c-17.9-1.5-35.8-2.8-53.8-4.3c-13.3-1.1-26.6-1.9-39.8-3.4c-3.6-0.4-7.1-2.4-10.6-3.6c-1.7-6.7-3.8-13.4-5.1-20.2
			c-10-51.2-19.8-102.4-29.9-153.6c-1.3-6.6-1.2-12.1,4.7-16.3c0.7,0.3,1.5,0.8,2.2,0.9c14.1,0.8,28.2,1.4,42.4,2.2
			c16.3,0.9,32.5,2,48.8,2.9c19.4,1.1,38.9,2.1,58.3,3.1c14.6,0.8,29.2,1.4,43.8,2.2c7.1,0.4,14.3,0.8,21.4,1.6
			c8.5,1,10.4,2.9,12.2,11.2c4.1,18.1,8.1,36.3,12.3,54.4c9.1,39.6,18.2,79.3,27.3,118.9C324.7,656.8,324.9,661.4,321.6,665.4z"/>
		<path class="st4" d="M440,398c-1.9,2.4-15,14-19.6,28.6c-4.9,12-9.6,24.1-14.1,36.3c-4,10.9-7.8,21.9-11.2,33
			c-3.4,11.1-6,22.4-4.9,34.2c0.8,9.1,4.3,17.3,9.4,24.8c2.9,4.3,5.7,8.8,8.6,13.2c-1,1.1-2,2.2-3,3.3
			c-14.5,17.9-29.2,35.8-46.4,51.3c-9.9-0.8-19.7-1.6-29.6-2.4c-0.9-2.8-2.1-5.5-2.8-8.4c-1.9-8.4-3.7-16.9-5.5-25.4
			c-1.5-7.1-3.1-14.2-4.6-21.3c11-20.1,21.9-40.3,33-60.3c10.1-18.2,20.5-36.1,30.7-54.2c0.6-1.1,3.1-4.7,7.1-11.7
			C391,432,403,414,440,398z"/>
		<path class="st1" d="M316.2,565.3c1.5,7.1,3.1,14.2,4.6,21.3c1.8,8.5,3.6,17,5.5,25.4c0.7,2.9,1.8,5.6,2.8,8.4
			c1.8,9,3.5,18.1,5.3,27.3c1.2,0,2.1,0.1,3.1,0c6.2-0.9,12.4-1.8,18.6-2.7c12.7-1.9,25.5-3.8,38.2-5.6c9-1.3,18-2.3,27-3.4
			c-4.4,5.7-8.9,11.3-13.3,17c-8.5,1.1-17,2.1-25.5,3.4c-12.4,1.8-24.8,3.8-37.1,5.7c-6.8,1.1-13.6,2.3-20.5,3.4
			c-1.1,0.2-2.2,0-3.4-0.1c3.4-4,3.1-8.6,2-13.3c-9.1-39.6-18.2-79.3-27.3-118.9c-4.1-18.1-8.2-36.3-12.3-54.4
			c-1.9-8.3-3.8-10.2-12.2-11.2c-7.1-0.8-14.2-1.2-21.4-1.6c-14.6-0.8-29.2-1.5-43.8-2.2c-19.4-1-38.9-2-58.3-3.1
			c-16.3-0.9-32.5-2-48.8-2.9c-14.1-0.8-28.2-1.4-42.4-2.2c-0.7,0-1.5-0.6-2.2-0.9c2.4-2.9,4.6-6.1,7.4-8.7c1.4-1.3,3.9-2.2,5.8-2.1
			c10.1,0.2,20.3,0.8,30.4,1.3c8,0.4,15.9,1.1,23.9,1.5c15.3,0.8,30.6,1.5,45.9,2.3c27.2,1.5,54.5,3.2,81.7,4.7
			c10,0.6,20,0.9,29.9,1.4c8.4,0.4,11.3,2.8,13.1,10.9c7.3,31.7,14.6,63.5,21.9,95.3C315.4,562.7,315.8,564,316.2,565.3z"/>
		<path class="st5" d="M408,652.9c4.4-5.7,8.9-11.3,13.3-17c3.4-2,7.1-3.5,8.6-7.7c1.9-0.8,4.1-1.3,5.7-2.5c6.5-5.2,13.7-8,22.1-6.9
			c9.2,1.2,18.4,2.2,27.5,3.7c6.9,1.1,13.4,5.1,20.8,2.2c5.1-0.8,9.1,1.3,11.8,5.5c2.9,4.5,5,9.4,3.9,14.9c-0.7,3.3-2,5.9-6,6.1
			c-1.7,0.1-3.4,1.1-5,1.7c-4.2-1.1-7,2-9.7,3.9c-5.7,4.1-11.8,4.2-18,2.8c-5.9-1.3-11.6-3.8-17.5-5.3c-5.1-1.3-10.3-0.6-15,1.9
			c-4.8,2.6-9.3,5.6-14,8.3c-1.3,0.7-2.8,1.3-4.2,1.3c-5.6,0.1-11.1,0-16.7,0c-1,0-2,0.1-3,0.1c-1.7-0.1-4.5,0.4-4.8-0.4
			c-1-2.1-1.3-4.6-1.3-7C406.5,656.7,407.5,654.8,408,652.9z"/>
		<path class="st4" d="M506,624.8c-7.3,2.9-13.9-1.1-20.8-2.2c-9.1-1.5-18.3-2.5-27.5-3.7c-8.5-1.1-15.6,1.7-22.1,6.9
			c-1.6,1.3-3.8,1.7-5.7,2.5c-4.8-0.5-9.7-1.1-14.5-1.6c0.1-1.9,0.1-3.8,0.2-5.7c0.3-4.6,0.5-9.2,0.8-14.9c0.5,1.9,0.7,3,1.1,4.4
			c0.7-0.5,1.4-0.8,1.9-1.4c7.4-8.6,17-12.7,28-14.1c7.5-1,15.1-1.6,22.7-2c12.9-0.8,25.8-1,38.6-2.2c10.1-1,20.2-3,30.2-4.7
			c7.3-1.3,14.7-2.3,21.8-4.4c16.1-4.8,30.7-12.1,40.4-26.5c2.4-3.6,3.4-8.1,5.1-12.1c1.7-3.9,3.7-7.7,5.8-12c1,1.5,2.1,3,3.1,4.5
			c-0.6,2-1.5,4-1.9,6.1c-1.6,8.5-3.4,17-4.6,25.5c-1.7,11.5-2.9,23.1-4.3,34.6c-9.4,1.7-18.8,3.4-28.2,5.1c-3.5,0.6-7.1,1.4-10.6,2
			c-10.9,2-21.7,3.9-32.6,5.8c-8.3,1.4-16.6,2.6-24.8,4.3c-1.9,0.4-3.4,2.1-5.6,3.5C504.2,623.7,505.1,624.2,506,624.8z"/>
		<path class="st6" d="M557.2,315.5c-1.7,2.9-0.3,4.8,1.2,7.5c4.3,7.8,12.6,49.9,13.6,61.9c-5.4-1.7-19.6-7.1-24.9-8.8
			c-0.4-2.4-0.8-4.8-1.2-7.2c0-0.3,0-0.6,0-1c-0.1-2.7-0.2-5.4-0.3-8.1c0-2.6,0-5.2,0-7.9c0-0.6,0-1.3,0-1.9
			c0.1-4.7,0.3-9.4,0.4-14.1c2.8-6.5,5.6-12.9,8.5-19.3C554.8,316,556.3,315.9,557.2,315.5z"/>
		<path class="st6" d="M438,399c-0.8,0.2-0.2-2.9,0.1-6c0.7-6.7-0.1-73.1-0.9-81.1c2,4.3,4,8.6,6.1,12.8
			c6.9,13.8,15.5,25.7,28.7,34.3c3,2,6.8,2.3,10,4c-0.8,4-2.2,9.9-3,13.9c-0.6,0.9-1.3,1.9-1.9,2.8c-1.7,0.6-3.3,1.1-5,1.7
			c-8.5,4.2-17.1,8.2-25.4,12.7C442.2,396.5,443,397,438,399z"/>
		<path class="st4" d="M472,381.5c1.7-0.6,3.3-1.1,5-1.7c-0.1,1.5,0,3-0.3,4.5c-3,14.6,4.2,26.9,17.6,31.7c12.2,4.3,24.4,4.5,36.6,0
			c12.9-4.8,20.7-17.3,17.4-30.9c-0.7-2.9-0.9-5.9-1.3-8.8c5.4,1.7,11.6,4.1,16.9,5.8c0.2,7.9-2.5,11.3-4.8,22.1
			C557,415,551,457,526,466c-11.7,3-24,8-44-4s-17.1-49-16-60s2.3-10.4,2.9-15.6C469.2,384.7,471,383.1,472,381.5z"/>
		<path class="st7" d="M415.6,621c-0.1,1.9-0.1,3.8-0.2,5.7c-8-0.6-16.1-1.1-24.1-1.7c-10.9-0.8-21.7-1.5-32.6-2.3
			c17.3-15.5,31.9-33.3,46.4-51.3c0.9-1.2,2-2.2,3-3.3c4.7,7,6.2,14.9,6.6,23.1C415,601.1,415.2,611,415.6,621z"/>
		<path class="st7" d="M604.3,601.9c1.4-11.5,2.6-23.1,4.3-34.6c1.2-8.6,3-17,4.6-25.5c0.4-2.1,1.3-4.1,1.9-6.1
			c13.3,19.2,26.5,38.5,40,58.1c-3.1,0.5-6.6,1-10.1,1.6c-12.6,2.1-25.2,4.3-37.8,6.4C606.3,601.8,605.3,601.8,604.3,601.9z"/>
		<path class="st8" d="M543.1,273.9c-0.7,0-1.6,0.2-1.9-0.2c-7.5-7.4-17.3-8.6-26.9-10.8c-16-3.8-32.1-7.5-47.7-12.6
			c-9.3-3-18.4-7.3-26-14.1c-1.9-1.7-3.7-3.5-5.5-5.2c3-6.3,5.9-12.7,8.9-19c2.5,3.1,4.8,6.3,7.6,9.2c7.7,8,17.1,13.9,27,18.5
			c15.7,7.2,31.8,13.4,47.6,20.4c5.1,2.3,9.7,5.6,14.2,8.9C541.8,269.9,542.2,272.2,543.1,273.9z"/>
		<path class="st6" d="M444,212c-3,6.3-5.9,12.7-8.9,19c-5.9,16.4-6.1,33.2-4.4,50.2c0.5,5.3,1.6,10.5,2.4,15.7
			c-1-0.7-6.4-23.1-6.6-25c-3.6-26,8.6-61.9,15.7-62.8C442.8,209.2,443.4,211,444,212z"/>
		<path class="st7" d="M414,246c-3.5-9.9,3.5-31.5,7.4-39.9c2.6-5.6,6.7-10.4,12-13.7C423.2,204.7,413.4,230.4,414,246z"/>
		<path class="st6" d="M433.1,297.4c1,3.5,2,7.1,3,10.6C435.1,304.4,434.1,300.9,433.1,297.4z"/>
		<path class="st6" d="M436.2,308.6c0.3,1.1,0.7,2.2,1,3.4C436.8,310.8,436.5,309.7,436.2,308.6z"/>
		<path class="st9" d="M671.1,463.9c-0.1,0.5-0.1,1-0.2,1.5c-0.2-0.1-0.4-0.2-0.6-0.3C670.5,464.8,670.8,464.4,671.1,463.9
			L671.1,463.9z"/>
		<path class="st8" d="M544,275.9c-0.3-0.7-0.6-1.4-0.9-2.1C543.4,274.6,543.7,275.2,544,275.9z"/>
		<path class="st0" d="M183.3,589.1c-11.6,0.7-27.2-12.7-26.2-28.4c0.3-5.5,4.9-4.8,7.9-15.7c2.6-9.5-1-17,9-17c8,0,6.6,7.2,11,17
			c6.1,13.5,13.1,19.3,13.8,25.7C200.1,582.2,193.2,589.7,183.3,589.1z"/>
		<path class="st0" d="M358.6,622.7c10.9,0.8,21.7,1.5,32.6,2.3c8,0.6,16.1,1.1,24.1,1.7c4.8,0.5,9.7,1.1,14.5,1.6
			c-1.4,4.1-5.2,5.7-8.6,7.7c-9,1.1-18,2.2-27,3.4c-12.8,1.8-25.5,3.7-38.2,5.6c-6.2,0.9-12.4,1.8-18.6,2.7c-0.9,0.1-1.9,0-3.1,0
			c-1.8-9.2-3.6-18.3-5.3-27.3C338.9,621.1,348.8,621.9,358.6,622.7z"/>
		<path class="st5" d="M547.1,376.2c0.4,3,0.6,6,1.3,8.8c3.3,13.5-4.4,55-20.4,67s-31,9-43-2s-11.3-51.2-8.2-65.8
			c0.3-1.4,0.2-3,0.3-4.5c0.6-0.9,1.3-1.9,1.9-2.8c5.6,3.3,11.7,3,17.9,3.1c17.3,0,30.1-8.7,41.1-21c2.6-2.9,5.1-5.9,7.6-8.9
			c0,0.6,0,1.3,0,1.9c0,2.6,0,5.2,0,7.9c0.1,2.7,0.2,5.4,0.3,8.1c-0.1,0.1-0.3,0.2-0.3,0.3c0.1,0.2,0.2,0.5,0.4,0.7
			C546.3,371.4,546.7,373.8,547.1,376.2z"/>
		<path class="st8" d="M545.6,350.1c-2.5,3-5,6-7.6,8.9c-11,12.3-23.8,21-41.1,21c-6.2,0-12.3,0.2-17.9-3.1c0.8-4,2.2-9.9,3-13.9
			c5.8,0.4,10.9,2.9,16.7,2.9c11.8,0.1,21.5-5.4,30.4-12.5c5.7-4.6,10.7-9.8,14.4-16.1c0.4-0.7,1.6-0.9,2.5-1.3
			C545.9,340.7,545.7,345.4,545.6,350.1z"/>
		<path class="st8" d="M545.5,359.9c0-2.6,0-5.2,0-7.9C545.6,354.6,545.5,357.3,545.5,359.9z"/>
		<path class="st8" d="M545.9,368.9c-0.1-0.2-0.3-0.4-0.4-0.7c0-0.1,0.2-0.2,0.3-0.3C545.9,368.3,545.9,368.6,545.9,368.9z"/>
		<path class="st3" d="M179,579.3c4.9,0.3,8.3-3.4,7.7-9.1c-0.6-5.4-5.6-10.7-11-12c-5-1.2-9.3,2-9.6,7.1
			C165.6,573.1,173.3,579.7,179,579.3z"/>
		<path class="st5" d="M473,360c-12-6-22.8-21.5-29.7-35.3c-2.1-4.2-4.1-8.6-6.1-12.8l0,0.1c-0.3-1.1-0.7-2.2-1-3.4
			c0.2-0.2,0.2-0.4-0.1-0.6c-1-3.5-2-7.1-3-10.6l0.2-0.2l-0.1-0.2c-0.8-5.2-1.9-10.5-2.4-15.7c-1.7-17-1.5-33.9,4.4-50.2
			c1.8,1.7,3.6,3.5,5.5,5.2c7.5,6.8,16.7,11.1,26,14.1c15.6,5.1,31.7,8.8,47.7,12.6c9.6,2.3,19.4,3.5,26.9,10.8
			c0.4,0.4,1.3,0.1,1.9,0.2l0,0c0.3,0.7,0.6,1.4,0.9,2.1c0.1,0.6,0.3,1.2,0.4,1.8c0.3,0.1,0.6,0.2,1,0.3c0.8-1.5,1.6-2.9,2.4-4.4
			c2.4-4.8,5.9-8.4,11.1-10.2c5.4-1.9,10-0.6,13.1,4.2c5.2,7.9,5.5,16.6,3.5,25.5c-2.4,10.4-8.9,17.6-18.3,22.4
			c-0.9,0.3-2.3,0.4-2.6,1.1c-2.9,6.4-5.7,12.9-8.5,19.3c-0.8,0.4-2.1,0.6-2.5,1.3c-3.7,6.4-8.7,11.6-14.4,16.1
			C520.2,360.5,505.6,376.3,473,360z"/>
	</g>
</g>
<rect x="1225.6" y="232" class="st0" width="81.8" height="62.8"/>
<rect x="1225.3" y="310.9" class="st1" width="81.8" height="62.8"/>
<rect x="1225.3" y="388.9" class="st3" width="81.8" height="62.8"/>
<rect x="1225.3" y="467.9" class="st4" width="81.8" height="62.8"/>
<path class="st7" d="M489.2,166.1c0,0,18.8-10.1,51.8-0.1c24.5,7.4,44.5,26.1,54.7,55c0,0-10.7-34-58.7-52
	C512.4,159.8,494,165,489.2,166.1z"/>
</svg>
